<svg version="1.2" xmlns="http://www.w3.org/2000/svg" viewBox="0 0 72 85" width="72" height="85"><style>tspan{white-space:pre}.a{font-size: 5px;fill: #000000;font-family: "Arbeit  Regular"}</style><path  d="m24.6 76.4h22.8c-2.5 3.9-6.8 6.2-11.4 6.2-4.6 0-8.9-2.3-11.4-6.2zm39.5-24.5v-18.2c0-7-2.5-13.6-7.1-18.8-4.7-5.1-11-8.4-17.9-9.2v-1.2c0-1.7-1.4-3.1-3.1-3.1-1.7 0-3.1 1.4-3.1 3.1v1.2c-6.9 0.8-13.2 4.1-17.9 9.2-4.6 5.2-7.1 11.8-7.1 18.8v18.2c-4.3 1.5-6.9 5.9-6.1 10.4 0.7 4.5 4.6 7.8 9.2 7.8h50c4.6 0 8.5-3.3 9.2-7.8 0.8-4.5-1.8-8.9-6.1-10.4z"/><text transform="translate(-14,109.5)"><tspan x="0" y="0" class="a">Created by Dwi ridwanto
</tspan></text><text transform="translate(-14,114.5)"><tspan x="0" y="0" class="a">from Noun Project
</tspan></text></svg>